<svg width="300" height="120" viewBox="0 0 300 120" xmlns="http://www.w3.org/2000/svg">
  <path d="M60,20 C20,20 10,50 10,75 C10,100 35,115 75,115 C115,115 140,95 140,70 C140,55 125,50 110,50 C100,50 90,55 85,65 C80,75 70,80 60,80 C50,80 40,70 40,55 C40,35 50,20 60,20 Z" 
        fill="#C4A484" />
        
  <g fill="white">
    <rect x="25" y="35" width="6" height="4" rx="1" />
    <rect x="20" y="55" width="6" height="4" rx="1" />
    <rect x="25" y="75" width="6" height="4" rx="1" />
    <rect x="45" y="100" width="4" height="6" rx="1" />
    <rect x="70" y="105" width="4" height="6" rx="1" />
    <rect x="95" y="100" width="4" height="6" rx="1" />
  </g>

  <circle cx="60" cy="55" r="12" fill="white" />
  <circle cx="60" cy="55" r="8" fill="#0c0702" />
  <rect x="68" y="52" width="10" height="6" fill="white" />

  <text x="150" y="65" font-family="Brush Script MT, cursive" font-size="38" fill="#D32F2F">Canvas</text>
  
  <text x="150" y="95" font-family="Courier New, monospace" font-size="24" letter-spacing="4" font-weight="bold" fill="currentColor">SİNEMA</text>
</svg>