<svg width="400" height="300" viewBox="0 0 400 300" xmlns="http://www.w3.org/2000/svg">
  <defs>
    <linearGradient id="woodGrad" x1="0%" y1="0%" x2="100%" y2="100%">
      <stop offset="0%" style="stop-color:#E6C9A8" />
      <stop offset="100%" style="stop-color:#A0785A" />
    </linearGradient>
    <filter id="shadow" x="-10%" y="-10%" width="120%" height="120%">
      <feGaussianBlur in="SourceAlpha" stdDeviation="3"/><feOffset dx="2" dy="2"/><feComponentTransfer><feFuncA type="linear" slope="0.2"/></feComponentTransfer><feMerge><feMergeNode/><feMergeNode in="SourceGraphic"/></feMerge>
    </filter>
  </defs>

  <g filter="url(#shadow)">
    <path d="M100,240 C50,220 30,150 60,100 C80,50 150,20 220,20 C300,20 360,80 360,150 C360,220 300,260 220,260 C180,260 150,230 130,220 C110,210 110,245 100,240 Z" fill="url(#woodGrad)" stroke="#8D6E63" stroke-width="1"/>
    
    <polygon points="90,120 90,170 135,145" fill="white" transform="rotate(-5, 100, 145)"/>
    
    <circle cx="230" cy="50" r="12" fill="#C62828" />
    <circle cx="270" cy="65" r="12" fill="#FBC02D" />
    <circle cx="305" cy="95" r="12" fill="#1565C0" />
    <circle cx="320" cy="135" r="12" fill="#2E7D32" />
  </g>

  <g font-family="'Times New Roman', serif" text-anchor="middle">
    <text x="215" y="180" font-weight="bold" font-size="34" fill="#5D3A1A" opacity="0.9">CANVAS</text>
    <text x="215" y="215" font-weight="normal" font-size="22" fill="#000000" opacity="0.8" letter-spacing="4">SİNEMA</text>
  </g>
</svg>